# File produced by Open Asset Import Library (http://www.assimp.sf.net)
# (assimp v5.3.0)

mtllib WoodenPallet_Broken2.mtl

# 146 vertex positions
v 3.04007769 0.0256220773 0.40497914
v 3.04007769 0.120622084 0.40497914
v 3.04007769 0.120622076 0.499979138
v 3.04007769 0.0256220736 0.499979138
v 2.94507766 0.0256220736 0.499979138
v 2.94507766 0.120622076 0.499979138
v 2.94507766 0.120622084 0.404979199
v 2.94507766 0.0256220773 0.404979199
v 2.39617968 0.161599413 0.485743821
v 2.39617968 0.151655868 0.485743821
v 2.52617979 0.151655942 0.485743761
v 2.52617979 0.161599487 0.485743761
v 2.52616048 0.146599472 0.48068732
v 2.52236676 0.146599531 -0.51425606
v 2.52236676 0.161599517 -0.51425606
v 2.39236665 0.146599442 -0.51425606
v 2.39236665 0.161599442 -0.51425606
v 2.3961606 0.146599412 0.48068735
v 2.39257765 0.120621964 -0.404999971
v 2.39257765 0.145621955 -0.404999971
v 2.39257765 0.14562197 -0.49999997
v 2.39257765 0.120621964 -0.49999997
v 3.5925777 0.14562197 -0.49999997
v 3.5925777 0.120621972 -0.49999997
v 3.5925777 0.145621955 -0.404999971
v 3.5925777 0.120621964 -0.405000001
v 2.48757792 0.000621967018 -0.404999971
v 2.48757792 0.0256219618 -0.404999971
v 2.48757792 0.0256219655 -0.49999997
v 2.48757792 0.000621974468 -0.49999997
v 3.49757767 0.0256219655 -0.5
v 3.49757767 0.000621974468 -0.5
v 3.49757767 0.0256219618 -0.404999971
v 3.49757767 0.000621967018 -0.404999971
v 2.76444983 0.145621911 -0.49999997
v 2.76444983 0.160621911 -0.49999997
v 2.76445031 0.16062218 0.49999994
v 2.76445031 0.145622194 0.49999994
v 2.66945028 0.16062212 0.499999881
v 2.66945028 0.145622134 0.499999881
v 2.66944981 0.160621852 -0.5
v 2.66944981 0.145621851 -0.5
v 2.39257741 0.0256221965 -0.499999911
v 2.39257741 0.000622220337 -0.499999911
v 2.39257812 0.000621847808 0.5
v 2.39257812 0.025621824 0.5
v 2.48787284 0.000621847808 0.499999881
v 2.48787284 0.025621824 0.499999881
v 2.48787212 0.000622220337 -0.5
v 2.48787212 0.0256221965 -0.5
v 2.9449532 0.000622011721 0.404999971
v 2.9449532 0.0256219916 0.404999971
v 2.9449532 0.0256220289 -0.405000001
v 2.9449532 0.000622041523 -0.405000001
v 3.03995323 0.0256220289 -0.405000001
v 3.03995323 0.000622041523 -0.405000001
v 3.03995323 0.0256219916 0.404999942
v 3.03995323 0.000622011721 0.404999942
v 2.48757768 0.000621929765 0.499999881
v 2.48757768 0.000621937215 0.404999822
v 3.49757743 0.000621937215 0.404999822
v 3.49757743 0.000621929765 0.499999881
v 2.48757768 0.0256219208 0.499999881
v 2.48757768 0.0256219245 0.404999822
v 3.49757743 0.0256219245 0.404999822
v 3.49757743 0.0256219208 0.499999881
v 3.21067023 0.145622 0.509402752
v 3.21067023 0.160622001 0.509402752
v 3.11592507 0.160622001 0.516356528
v 3.11592507 0.145622015 0.516356528
v 3.04272866 0.160622045 -0.480960906
v 3.04272866 0.145622045 -0.480960906
v 3.13747406 0.145622045 -0.487914532
v 3.13747406 0.160622045 -0.487914532
v 3.31557155 0.145622 0.505953848
v 3.31557155 0.160622001 0.505953848
v 3.22057152 0.160622001 0.505953848
v 3.22057152 0.145622 0.505953848
v 3.22057152 0.160622045 -0.494046062
v 3.22057152 0.145622045 -0.494046062
v 3.31557155 0.145622045 -0.494046062
v 3.31557155 0.160622045 -0.494046062
v 3.59228301 0.0256220736 0.499979079
v 3.59228301 0.120622084 0.499979079
v 3.46728301 0.120622084 0.499979079
v 3.46728301 0.0256220736 0.499979079
v 3.46728301 0.120622084 0.40497908
v 3.46728301 0.0256220773 0.40497908
v 3.59228301 0.0256220773 0.40497908
v 3.59228301 0.120622084 0.40497908
v 2.51787257 0.0256220773 0.40497914
v 2.51787257 0.0256220736 0.499979138
v 2.39287257 0.0256220736 0.499979138
v 2.39287257 0.0256220773 0.40497914
v 2.51787257 0.120622084 0.40497914
v 2.51787257 0.120622076 0.499979138
v 2.39287257 0.120622076 0.499979138
v 2.39287257 0.120622084 0.40497914
v 3.04007769 0.0256220959 -0.40497911
v 2.94507766 0.0256220959 -0.404979199
v 2.94507766 0.0256220996 -0.499979109
v 3.04007769 0.0256220996 -0.499979109
v 3.04007769 0.120622113 -0.499979109
v 3.04007769 0.120622113 -0.40497911
v 2.9539206 0.0654148012 -0.499979109
v 2.95265198 0.0760188475 -0.499979079
v 2.94507766 0.0615885407 -0.49143061
v 2.94507766 0.0747409537 -0.486696392
v 2.94507766 0.0527522266 -0.499979109
v 2.95004177 0.0825310573 -0.499979079
v 2.94507766 0.081525512 -0.489494413
v 2.94507766 0.120622113 -0.404979199
v 2.94507766 0.120622113 -0.499979109
v 2.94507766 0.0898673832 -0.499979109
v 3.46728277 0.0256221145 -0.404979169
v 3.46728277 0.0256221183 -0.499979198
v 3.59228277 0.0256221183 -0.499979168
v 3.59228277 0.0256221145 -0.404979169
v 3.46728277 0.120622113 -0.404979169
v 3.46728277 0.120622121 -0.499979198
v 3.59228277 0.120622121 -0.499979168
v 3.59228277 0.120622113 -0.404979169
v 2.39287257 0.0256221071 -0.499979138
v 2.39287257 0.120622113 -0.499979138
v 2.51787257 0.120622113 -0.499979109
v 2.51787257 0.0256221071 -0.499979138
v 2.51787257 0.120622113 -0.411436915
v 2.51787257 0.0256221034 -0.404979229
v 2.39287257 0.0256221034 -0.404979229
v 2.39287257 0.120622113 -0.408521533
v 2.39257765 0.12062192 0.499999881
v 2.39257765 0.120621927 0.404999852
v 3.59257746 0.120621927 0.404999852
v 3.59257746 0.12062192 0.49999994
v 2.39257765 0.145621926 0.499999881
v 2.39257765 0.145621926 0.404999852
v 3.59257746 0.145621926 0.404999852
v 3.59257746 0.145621926 0.49999994
v 3.5925777 0.000622048974 -0.49999994
v 3.5925777 0.000622004271 0.49999994
v 3.49728298 0.000622004271 0.49999994
v 3.49728298 0.000622048974 -0.49999994
v 3.5925777 0.0256220326 -0.49999994
v 3.5925777 0.0256219879 0.49999994
v 3.49728298 0.0256219879 0.49999994
v 3.49728298 0.0256220326 -0.49999994

# 268 UV coordinates
vt 0.99609375 0.844140708 0
vt 0.959313154 0.844140708 0
vt 0.959313154 0.807359934 0
vt 0.99609375 0.807359993 0
vt 0.92253226 0.7705791 0
vt 0.959313154 0.7705791 0
vt 0.92253226 0.807359934 0
vt 0.92253226 0.844140589 0
vt 0.959313154 0.917702079 0
vt 0.92253226 0.917702079 0
vt 0.92253232 0.880921423 0
vt 0.959313154 0.880921423 0
vt 0.885751486 0.844140708 0
vt 0.885751486 0.807359934 0
vt 0.598510087 0.00409583468 0
vt 0.598495543 0.00791354943 0
vt 0.548583448 0.00772396475 0
vt 0.548597872 0.00390625 0
vt 0.548580348 0.0104694813 0
vt 0.548585474 0.392473519 0
vt 0.54191792 0.392457724 0
vt 0.5485636 0.398232609 0
vt 0.598497748 0.392663181 0
vt 0.598475814 0.398422211 0
vt 0.605165303 0.00840973388 0
vt 0.655115664 0.00821928866 0
vt 0.655115664 0.392457902 0
vt 0.605165303 0.39264825 0
vt 0.598492503 0.0106590949 0
vt 0.600741863 0.00840979163 0
vt 0.402295351 0.00390628399 0
vt 0.402295351 0.0135854306 0
vt 0.365514576 0.0135853961 0
vt 0.365514576 0.00390625 0
vt 0.355835319 0.0135853942 0
vt 0.365514487 0.478183955 0
vt 0.355835319 0.478183955 0
vt 0.365514487 0.487863064 0
vt 0.402295172 0.478183955 0
vt 0.402295172 0.487863123 0
vt 0.41197446 0.478183955 0
vt 0.41197449 0.0135854324 0
vt 0.74859035 0.00390625 0
vt 0.74859035 0.468504995 0
vt 0.711809576 0.468504995 0
vt 0.711809576 0.00390625 0
vt 0.806811452 0.422392219 0
vt 0.806811452 0.432071388 0
vt 0.770030677 0.432071388 0
vt 0.770030677 0.422392219 0
vt 0.760351479 0.432071388 0
vt 0.770030618 0.823108613 0
vt 0.760351479 0.823108613 0
vt 0.770030618 0.832787693 0
vt 0.806811392 0.823108554 0
vt 0.806811392 0.832787693 0
vt 0.816490591 0.823108554 0
vt 0.81649065 0.432071388 0
vt 0.910396755 0.408232301 0
vt 0.910396874 0.799269557 0
vt 0.87361604 0.799269617 0
vt 0.87361604 0.408232391 0
vt 0.169611692 0.396879703 0
vt 0.163804203 0.396879703 0
vt 0.163804203 0.00971373916 0
vt 0.169611692 0.00971373916 0
vt 0.163804203 0.00390625 0
vt 0.127023429 0.00971373916 0
vt 0.127023429 0.00390625 0
vt 0.12121594 0.00971373916 0
vt 0.127023429 0.396879703 0
vt 0.12121594 0.396879703 0
vt 0.127023429 0.402687192 0
vt 0.163804203 0.402687192 0
vt 0.163804203 0.789853156 0
vt 0.127023429 0.789853156 0
vt 0.65528661 0.797597826 0
vt 0.645607412 0.797597826 0
vt 0.64560765 0.41043222 0
vt 0.655286789 0.410432279 0
vt 0.64560765 0.40075314 0
vt 0.608712733 0.41043219 0
vt 0.608712733 0.400753111 0
vt 0.599033535 0.41043219 0
vt 0.608712554 0.797597826 0
vt 0.599033415 0.797597826 0
vt 0.608712554 0.807276964 0
vt 0.645607412 0.807276964 0
vt 0.562138557 0.41043219 0
vt 0.562138557 0.797597826 0
vt 0.933800519 0.327189475 0
vt 0.92412132 0.327189475 0
vt 0.92412138 0.0135853663 0
vt 0.933800399 0.0135853682 0
vt 0.92412138 0.00390637154 0
vt 0.887340486 0.0135855889 0
vt 0.887340486 0.00390625 0
vt 0.877661169 0.013585587 0
vt 0.887340605 0.327189475 0
vt 0.877661347 0.327189475 0
vt 0.887340546 0.336868584 0
vt 0.92412132 0.336868584 0
vt 0.970581234 0.0135853747 0
vt 0.970581234 0.327189475 0
vt 0.825074077 0.408232391 0
vt 0.861854851 0.408232391 0
vt 0.861854851 0.799270213 0
vt 0.825074077 0.799270213 0
vt 0.806811392 0.414301902 0
vt 0.770030618 0.414301872 0
vt 0.770030677 0.404622704 0
vt 0.806811392 0.404622734 0
vt 0.81649065 0.0135854613 0
vt 0.816490591 0.404622704 0
vt 0.806811571 0.0135854585 0
vt 0.770030737 0.00390625 0
vt 0.806811571 0.00390631147 0
vt 0.770030797 0.0135854483 0
vt 0.760351479 0.404622734 0
vt 0.760351479 0.0135854473 0
vt 0.0703911632 0.402687222 0
vt 0.0703911707 0.396879733 0
vt 0.107171953 0.396879733 0
vt 0.107171953 0.402687222 0
vt 0.112979442 0.396879733 0
vt 0.107171953 0.00971373916 0
vt 0.112979442 0.00971373916 0
vt 0.107171394 0.789853215 0
vt 0.0703906044 0.789853156 0
vt 0.0645836741 0.00971374288 0
vt 0.0703911632 0.00971374288 0
vt 0.0645836741 0.396879733 0
vt 0.107171953 0.00390625 0
vt 0.0703911632 0.00390625326 0
vt 0.183655694 0.402687192 0
vt 0.183655694 0.396879703 0
vt 0.220436469 0.396879703 0
vt 0.220436469 0.402687192 0
vt 0.226243958 0.396879703 0
vt 0.220436469 0.00971373916 0
vt 0.226243958 0.00971373916 0
vt 0.220436469 0.789853156 0
vt 0.183655694 0.789853156 0
vt 0.177848205 0.00971373916 0
vt 0.183655694 0.00971373916 0
vt 0.177848205 0.396879703 0
vt 0.220436469 0.00390625 0
vt 0.183655694 0.00390625 0
vt 0.174177378 0.945066631 0
vt 0.174177378 0.908285856 0
vt 0.222573057 0.908285856 0
vt 0.222573057 0.945066631 0
vt 0.259353995 0.908285856 0
vt 0.222573057 0.871505082 0
vt 0.259353995 0.871505082 0
vt 0.222573057 0.834724188 0
vt 0.174177378 0.834724188 0
vt 0.174177378 0.797943473 0
vt 0.222573057 0.797943473 0
vt 0.137396589 0.871505082 0
vt 0.174177378 0.871505082 0
vt 0.137396589 0.908285856 0
vt 0.441158086 0.854749501 0
vt 0.441158086 0.817968726 0
vt 0.489553839 0.817968726 0
vt 0.489553839 0.85474962 0
vt 0.404377252 0.92831105 0
vt 0.404377252 0.891530335 0
vt 0.441158146 0.891530216 0
vt 0.441158026 0.928310931 0
vt 0.489553809 0.965091765 0
vt 0.441158026 0.965091765 0
vt 0.489553809 0.92831105 0
vt 0.526334584 0.891530216 0
vt 0.526334584 0.92831105 0
vt 0.489553809 0.891530216 0
vt 0.862229109 0.844141304 0
vt 0.825448394 0.844141483 0
vt 0.825448334 0.80736059 0
vt 0.86222899 0.80736053 0
vt 0.899010003 0.880922139 0
vt 0.899010062 0.917702913 0
vt 0.862229168 0.917702973 0
vt 0.862229168 0.880922079 0
vt 0.828872144 0.939077377 0
vt 0.828381002 0.93497175 0
vt 0.802592695 0.914393365 0
vt 0.788667619 0.880922258 0
vt 0.807684898 0.912560225 0
vt 0.825448513 0.954483628 0
vt 0.825448513 0.943979979 0
vt 0.788667619 0.917703092 0
vt 0.799171567 0.917702913 0
vt 0.940203011 0.344902933 0
vt 0.934293449 0.344296932 0
vt 0.934641361 0.340176672 0
vt 0.939585745 0.339526236 0
vt 0.937813997 0.335108221 0
vt 0.934293449 0.347013146 0
vt 0.938787758 0.34736675 0
vt 0.825448513 0.880922258 0
vt 0.825448453 0.917703032 0
vt 0.810311675 0.913643599 0
vt 0.813541293 0.917702973 0
vt 0.827370584 0.932450473 0
vt 0.825448513 0.929610133 0
vt 0.934600592 0.350428879 0
vt 0.0406870171 0.834856808 0
vt 0.0406869017 0.798075974 0
vt 0.0890826881 0.798075795 0
vt 0.0890826881 0.834856689 0
vt 0.00390636455 0.908418417 0
vt 0.00390625 0.871637881 0
vt 0.0406870171 0.871637762 0
vt 0.0406871326 0.908418298 0
vt 0.0890830308 0.945199013 0
vt 0.0406872481 0.945198953 0
vt 0.0890829116 0.908418298 0
vt 0.125863686 0.871637464 0
vt 0.125863686 0.908418298 0
vt 0.0890827999 0.871637583 0
vt 0.57464844 0.960631609 0
vt 0.57464844 0.923850775 0
vt 0.623044074 0.923850775 0
vt 0.623044074 0.960631609 0
vt 0.659824789 0.923850775 0
vt 0.623044074 0.889570296 0
vt 0.659824789 0.88707 0
vt 0.623845458 0.852713287 0
vt 0.575461447 0.851644099 0
vt 0.576274097 0.814872324 0
vt 0.62465775 0.815941572 0
vt 0.537867606 0.88707 0
vt 0.57464844 0.888441384 0
vt 0.537867606 0.923850775 0
vt 0.663267612 0.00390625 0
vt 0.700048447 0.00390625373 0
vt 0.700048327 0.468505681 0
vt 0.663267612 0.468505681 0
vt 0.337572604 0.487863272 0
vt 0.300791889 0.487863272 0
vt 0.300791919 0.478184074 0
vt 0.337572664 0.478184074 0
vt 0.347251922 0.0135854464 0
vt 0.347251862 0.478184074 0
vt 0.337572664 0.0135854464 0
vt 0.300791979 0.00390625 0
vt 0.337572664 0.00390625 0
vt 0.300791949 0.0135853318 0
vt 0.291112721 0.478184074 0
vt 0.291112721 0.0135854185 0
vt 0.440783828 0.80019927 0
vt 0.440783709 0.413033336 0
vt 0.477678597 0.413033336 0
vt 0.477678657 0.80019927 0
vt 0.533931732 0.413033277 0
vt 0.533931732 0.800199151 0
vt 0.524252594 0.80019927 0
vt 0.524252653 0.413033277 0
vt 0.487357795 0.403354168 0
vt 0.524252653 0.403354138 0
vt 0.487357795 0.413033277 0
vt 0.487357795 0.80019927 0
vt 0.524252594 0.809878409 0
vt 0.487357795 0.809878409 0
vt 0.541912735 0.00851343665 0
vt 0.546274126 0.0083398344 0
vt 0.862229228 0.954483688 0

# 117 vertex normals
vn 0.00999999885 -7.02939746e-12 -1.01863407e-10
vn -3.20142135e-10 -4.36954556e-10 0.00999999885
vn 8.19796401e-12 0.00999999978 5.09593423e-10
vn -7.02940267e-12 -0.00999999978 -4.36954528e-10
vn -3.0559022e-09 4.36954556e-10 -0.00999999885
vn -0.00999999791 7.02939963e-12 4.36557457e-11
vn 5.12227416e-09 -4.36954556e-10 0.00999999885
vn 0.0099999262 1.31900668e-08 -3.81415739e-05
vn 0.0099999262 -5.36321898e-12 -3.81305435e-05
vn 0.00999992713 1.53306132e-10 -3.81305581e-05
vn -8.73114914e-10 4.36954528e-10 -0.00999999885
vn -5.49402879e-09 0.00999999978 4.66756245e-10
vn -0.0099999262 5.36268252e-12 3.81428399e-05
vn -0.00999992713 5.36067328e-12 3.8188824e-05
vn -0.0099999262 5.3626539e-12 3.81434802e-05
vn 4.48926585e-09 -0.00707106665 0.00707106804
vn 5.49497559e-09 -0.00999999978 -4.07479689e-10
vn -0.00999999885 7.02975005e-12 -7.95989763e-09
vn -1.45519152e-11 4.36954556e-10 -0.00999999885
vn -2.47382559e-10 -4.36954556e-10 0.00999999885
vn 2.83907741e-11 -0.00999999978 -7.05256964e-10
vn -2.40848036e-11 0.00999999978 9.729203e-10
vn -0.00999999885 7.0293966e-12 1.30967237e-10
vn 2.91038305e-11 4.36954528e-10 -0.00999999885
vn 0.00999999885 -7.0293992e-12 -7.27595761e-11
vn 2.76486389e-10 -4.36954528e-10 0.00999999885
vn 7.02940267e-12 0.00999999978 4.36954528e-10
vn 0.00999999885 -7.02924611e-12 -3.56521923e-09
vn -2.56113708e-09 -4.36954556e-10 0.00999999885
vn -0.00999999885 7.02924611e-12 3.56521923e-09
vn 2.575689e-09 4.36954528e-10 -0.00999999885
vn 6.51852705e-09 -0.00999999885 2.83149837e-09
vn -6.51852705e-09 0.00999999885 -2.83149837e-09
vn -0.00999999978 7.0291134e-12 6.62112143e-09
vn 8.94942787e-09 -4.36954556e-10 0.00999999885
vn 0.00999999978 -7.0291134e-12 -6.62112143e-09
vn -8.9785317e-09 4.36954556e-10 -0.00999999885
vn 7.03879316e-12 0.00999999978 3.67984709e-09
vn -6.39489503e-12 -0.00999999978 -3.63982178e-09
vn -0.00999999885 7.02941611e-12 -3.20142135e-10
vn 1.64436642e-09 4.36954556e-10 -0.00999999885
vn 0.00999999885 -7.02939573e-12 -1.45519152e-10
vn -1.58615876e-09 -4.36954528e-10 0.00999999885
vn -1.07265134e-11 -0.00999999978 -6.66770528e-10
vn -0.00999999885 7.02939269e-12 2.18278728e-10
vn 5.82076609e-11 4.36954528e-10 -0.00999999885
vn 0.00999999885 -7.02939269e-12 -2.18278728e-10
vn 3.95180763e-12 0.00999999978 2.45648224e-10
vn -5.82076609e-11 -4.36954528e-10 0.00999999885
vn 0.000731969951 -4.36296943e-10 0.00997317396
vn -0.00997317489 -2.4972923e-11 0.000731963257
vn -5.08078024e-10 -0.00999999978 -4.28894031e-10
vn 0.00997317396 2.49729126e-11 -0.000731963024
vn -0.000731959124 4.36296971e-10 -0.00997317489
vn 5.08078024e-10 0.00999999978 4.28894031e-10
vn 2.69210432e-09 -4.36954528e-10 0.00999999885
vn -0.00999999885 7.02940484e-12 -5.82076609e-11
vn -6.38350614e-12 -0.00999999885 -3.96804978e-10
vn -2.69210432e-09 4.36954528e-10 -0.00999999885
vn 7.02940223e-12 0.00999999885 4.369545e-10
vn 1.65891834e-09 -4.36954528e-10 0.00999999885
vn -0.00999999885 7.02939833e-12 8.73114914e-11
vn 0.00999999791 -7.02939963e-12 -4.36557457e-11
vn 9.16770659e-10 4.36954528e-10 -0.00999999885
vn -5.97982167e-12 -0.00999999978 -3.7171155e-10
vn 1.58615876e-09 -4.36954556e-10 0.00999999978
vn -0.00999999885 7.02939746e-12 1.01863407e-10
vn 7.91750953e-12 0.00999999885 4.9216009e-10
vn 9.7497832e-10 4.36954556e-10 -0.00999999978
vn 0.00999999885 -7.02939833e-12 -8.73114914e-11
vn -6.75208867e-09 2.77323831e-10 -0.00999999885
vn -1.132139e-08 -4.20848023e-09 -0.00999999885
vn -6.46105036e-09 -2.79638729e-10 -0.00999999885
vn -0.00999999885 -7.06556103e-09 -8.58562998e-10
vn -0.00999999885 6.46613041e-11 -5.09317033e-10
vn -0.00999999885 -8.12785661e-09 -3.79804987e-09
vn -7.84348231e-09 2.8867384e-09 -0.00999999885
vn -9.58098099e-08 4.36954584e-10 -0.00999999885
vn -0.00999999885 7.61179475e-09 3.79804987e-09
vn -0.00999999885 7.02826165e-12 2.6091584e-08
vn -0.00835908949 -0.000826461124 -0.00542609952
vn -0.00836997665 -0.000918562 -0.005394415
vn -0.00789228082 0.00217087148 -0.00574449217
vn -0.00777598424 0.00275669224 -0.00565107958
vn -0.00705561787 0.0049272771 -0.00509315031
vn -0.00810192712 -0.0038146486 -0.00445052935
vn -0.00825698301 -0.00331221242 -0.0045663421
vn -0.00999999885 1.30651823e-10 2.32830644e-10
vn -0.00999999885 3.23282429e-10 -6.69388101e-10
vn -0.00999999885 3.2036615e-10 -6.69388101e-10
vn -7.08678272e-09 -4.36954556e-10 0.00999999885
vn -0.00999999885 7.02938619e-12 3.63797881e-10
vn -2.46203854e-07 -2.44306069e-08 -0.00999999885
vn 5.96628524e-08 4.36954528e-10 -0.00999999978
vn -2.22644303e-09 -1.66076153e-09 -0.00999999885
vn -0.00756428391 -0.00511839427 -0.00407230062
vn -8.07898366e-12 -0.00999999978 -5.02197506e-10
vn -1.58615876e-09 4.36954556e-10 -0.00999999978
vn 6.14129581e-12 0.00999999978 3.81748938e-10
vn -9.7497832e-10 -4.36954556e-10 0.00999999978
vn 0.00999999885 -2.63234723e-09 -2.03726813e-09
vn -0.00999999885 7.02937144e-12 6.98491931e-10
vn 0.000116449228 0.000525552081 0.00998550095
vn -1.53761205e-12 -0.00999999978 -9.55794333e-11
vn -0.00999999885 7.02904185e-12 8.25093593e-09
vn 0 4.36954528e-10 -0.00999999885
vn 1.81514526e-12 0.00999999978 1.12831161e-10
vn 0 -4.36954528e-10 0.00999999885
vn 0.00999999885 -7.02939486e-12 -1.60071068e-10
vn -6.54836185e-10 -4.36954556e-10 0.00999999885
vn -0.00999999885 7.02939573e-12 1.45519152e-10
vn -2.54658516e-09 4.36954556e-10 -0.00999999885
vn 0.0099999262 1.31033113e-08 -3.81422287e-05
vn 0.0099999262 -5.36078777e-12 -3.81861755e-05
vn -0.00999992713 5.36318689e-12 3.81313002e-05
vn -0.0099999262 5.36318646e-12 3.81312857e-05
vn -6.53380994e-09 1.2208744e-09 -0.00999999885

# Mesh 'Cube.175' with 121 faces
g Cube.175
usemtl Material
f  1/1/1 2/2/1 3/3/1 4/4/1
f  5/5/2 4/6/2 3/3/2 6/7/2
f  7/8/3 6/7/3 3/3/3 2/2/3
f  4/9/4 5/10/4 8/11/4 1/12/4
f  1/12/5 8/11/5 7/8/5 2/2/5
f  8/13/6 5/14/6 6/7/6 7/8/6
f  9/15/7 10/16/7 11/17/7 12/18/7
f  13/19/8 14/20/9 15/21/10
f  15/22/11 14/20/11 16/23/11 17/24/11
f  9/25/12 12/26/12 15/27/12 17/28/12
f  18/29/13 10/30/14 9/25/15
f  18/29/16 13/19/16 11/17/16 10/16/16
f  13/19/17 18/29/17 16/23/17 14/20/17
f  19/31/18 20/32/18 21/33/18 22/34/18
f  22/35/19 21/33/19 23/36/19 24/37/19
f  24/38/1 23/36/1 25/39/1 26/40/1
f  26/41/20 25/39/20 20/32/20 19/42/20
f  22/43/21 24/44/21 26/45/21 19/46/21
f  23/36/22 21/33/22 20/32/22 25/39/22
f  27/47/23 28/48/23 29/49/23 30/50/23
f  30/51/24 29/49/24 31/52/24 32/53/24
f  32/54/25 31/52/25 33/55/25 34/56/25
f  34/57/26 33/55/26 28/48/26 27/58/26
f  30/59/4 32/60/4 34/61/4 27/62/4
f  31/52/27 29/49/27 28/48/27 33/55/27
f  35/63/28 36/64/28 37/65/28 38/66/28
f  38/67/29 37/65/29 39/68/29 40/69/29
f  40/70/30 39/68/30 41/71/30 42/72/30
f  42/73/31 41/71/31 36/64/31 35/74/31
f  38/75/32 40/76/32 42/73/32 35/74/32
f  39/68/33 37/65/33 36/64/33 41/71/33
f  43/77/34 44/78/34 45/79/34 46/80/34
f  46/81/35 45/79/35 47/82/35 48/83/35
f  48/84/36 47/82/36 49/85/36 50/86/36
f  50/87/37 49/85/37 44/78/37 43/88/37
f  46/89/38 48/84/38 50/86/38 43/90/38
f  47/82/39 45/79/39 44/78/39 49/85/39
f  51/91/40 52/92/40 53/93/40 54/94/40
f  54/95/41 53/93/41 55/96/41 56/97/41
f  56/98/42 55/96/42 57/99/42 58/100/42
f  58/101/43 57/99/43 52/92/43 51/102/43
f  54/94/4 56/103/4 58/104/4 51/91/4
f  55/96/27 53/93/27 52/92/27 57/99/27
f  59/105/44 60/106/44 61/107/44 62/108/44
f  60/109/45 59/110/45 63/111/45 64/112/45
f  61/113/46 60/114/46 64/112/46 65/115/46
f  62/116/47 61/117/47 65/115/47 66/118/47
f  66/118/48 65/115/48 64/112/48 63/111/48
f  59/119/49 62/120/49 66/118/49 63/111/49
f  67/121/50 68/122/50 69/123/50 70/124/50
f  70/125/51 69/123/51 71/126/51 72/127/51
f  72/128/52 73/129/52 67/121/52 70/124/52
f  73/130/53 74/131/53 68/122/53 67/132/53
f  72/133/54 71/126/54 74/131/54 73/134/54
f  74/131/55 71/126/55 69/123/55 68/122/55
f  75/135/56 76/136/56 77/137/56 78/138/56
f  78/139/57 77/137/57 79/140/57 80/141/57
f  80/142/58 81/143/58 75/135/58 78/138/58
f  81/144/42 82/145/42 76/136/42 75/146/42
f  80/147/59 79/140/59 82/145/59 81/148/59
f  82/145/60 79/140/60 77/137/60 76/136/60
f  83/149/61 84/150/61 85/151/61 86/152/61
f  86/153/62 85/151/62 87/154/62 88/155/62
f  88/156/4 89/157/4 83/158/4 86/159/4
f  89/160/63 90/161/63 84/150/63 83/162/63
f  88/156/64 87/154/64 90/161/64 89/157/64
f  90/161/27 87/154/27 85/151/27 84/150/27
f  91/163/65 92/164/65 93/165/65 94/166/65
f  92/167/63 91/168/63 95/169/63 96/170/63
f  93/171/66 92/172/66 96/170/66 97/173/66
f  94/174/67 93/175/67 97/173/67 98/176/67
f  98/176/68 97/173/68 96/170/68 95/169/68
f  91/163/69 94/166/69 98/176/69 95/169/69
f  99/177/4 100/178/4 101/179/4 102/180/4
f  99/181/70 102/182/70 103/183/70 104/184/70
f  105/185/71 106/186/72 103/183/73
f  107/187/74 100/188/75 108/189/76
f  101/190/77 109/191/78 105/185/71
f  101/192/79 107/187/74 109/193/80
f  108/194/81 106/195/82 105/196/83 107/197/84
f  107/197/84 105/196/83 109/198/85
f  110/199/86 106/195/82 108/194/81 111/200/87
f  112/201/88 113/202/89 111/203/90 108/189/76
f  104/184/91 112/201/91 100/178/91 99/177/91
f  112/201/27 104/184/27 103/183/27 113/202/27
f  111/203/90 113/202/89 114/204/92
f  110/205/93 114/206/94 113/202/95
f  106/186/72 110/205/93 113/202/95
f  114/207/96 110/199/86 111/200/87
f  115/208/97 116/209/97 117/210/97 118/211/97
f  116/212/6 115/213/6 119/214/6 120/215/6
f  117/216/98 116/217/98 120/215/98 121/218/98
f  118/219/1 117/220/1 121/218/1 122/221/1
f  122/221/99 121/218/99 120/215/99 119/214/99
f  115/208/100 118/211/100 122/221/100 119/214/100
f  123/222/69 124/223/69 125/224/69 126/225/69
f  126/226/101 125/224/101 127/227/101 128/228/101
f  128/229/4 129/230/4 123/231/4 126/232/4
f  129/233/102 130/234/102 124/223/102 123/235/102
f  128/229/103 127/227/103 130/234/103 129/230/103
f  130/234/60 127/227/60 125/224/60 124/223/60
f  131/236/104 132/237/104 133/238/104 134/239/104
f  132/240/105 131/241/105 135/242/105 136/243/105
f  133/244/106 132/245/106 136/243/106 137/246/106
f  134/247/47 133/248/47 137/246/47 138/249/47
f  138/249/107 137/246/107 136/243/107 135/242/107
f  131/250/108 134/251/108 138/249/108 135/242/108
f  139/252/4 140/253/4 141/254/4 142/255/4
f  140/256/109 139/257/109 143/258/109 144/259/109
f  141/260/110 140/261/110 144/259/110 145/262/110
f  142/255/111 141/254/111 145/262/111 146/263/111
f  139/264/112 142/265/112 146/263/112 143/258/112
f  15/21/10 12/266/113 13/19/8
f  12/266/113 11/267/114 13/19/8
f  9/25/15 17/28/115 18/29/13
f  17/28/115 16/23/116 18/29/13
f  106/186/72 113/202/95 103/183/73
f  103/183/73 102/268/117 105/185/71
f  102/268/117 101/190/77 105/185/71
f  101/192/79 100/188/75 107/187/74
f  100/188/75 112/201/88 108/189/76

